<?xml version="1.0" encoding="UTF-8"?>
<svg width="1024px" height="1024px" viewBox="0 0 1024 1024" version="1.1" xmlns="http://www.w3.org/2000/svg" xmlns:xlink="http://www.w3.org/1999/xlink">
    <!-- Generator: Sketch 48.2 (47327) - http://www.bohemiancoding.com/sketch -->
    <title>Group 4</title>
    <desc>Created with Sketch.</desc>
    <defs></defs>
    <g id="main" stroke="none" stroke-width="1" fill="none" fill-rule="evenodd">
        <g id="Group-4">
            <rect id="Rectangle-15" fill="#0BC185" x="0" y="0" width="1024" height="1024"></rect>
            <path d="M777.646972,493.297447 C796.889277,500.639415 813.215411,512.775957 826.651887,529.69383 C840.088362,546.611702 846.808809,568.041596 846.808809,593.965851 C846.808809,630.560904 833.513723,660.436489 806.905879,683.623511 C780.315709,706.788457 743.64266,718.368723 696.895567,718.368723 C678.497184,718.368723 660.682035,716.117128 643.485468,711.622766 C626.284482,707.110745 612.110128,701.742234 600.966823,695.473085 C589.841191,689.226011 580.036674,682.886223 571.562106,676.440479 C563.105213,670.016809 557.034277,664.595319 553.340461,660.171596 L547,653.275532 L598.081582,602.521915 C600.644277,605.457819 604.285071,609.276702 608.973035,613.965319 C613.674255,618.653936 624.115028,624.953989 640.313028,632.865479 C656.511028,640.759309 673.442489,644.719468 691.107411,644.719468 C711.533858,644.719468 727.497681,639.942553 739.003298,630.379894 C750.500078,620.821649 756.252887,608.680691 756.252887,593.965851 C756.252887,580.73883 749.589879,570.063617 736.241773,561.971117 C722.889248,553.883032 706.607298,547.13266 687.378248,541.706755 C668.140362,536.280851 649.004099,529.8925 629.956206,522.532872 C610.91273,515.17766 594.661709,503.036702 581.242908,486.11883 C567.802014,469.200957 561.081567,447.771064 561.081567,421.846809 C561.081567,389.856489 573.912716,362.537128 599.58827,339.924043 C625.263823,317.297713 658.627461,306 699.657092,306 C715.855092,306 731.514043,307.87633 746.598596,311.655479 C761.683149,315.416968 774.063617,319.836277 783.722326,324.886915 C793.381035,329.950798 801.855603,335.094149 809.128355,340.339043 C816.387851,345.579521 821.597191,350.131277 824.71661,353.998723 L829.678518,359.512926 L778.884135,413.290745 C776.679333,410.730106 773.599681,407.542553 769.640759,403.785479 C765.677418,400.00633 757.366333,394.995426 744.663319,388.743936 C731.960305,382.496862 718.899397,379.366702 705.458504,379.366702 C689.260504,379.366702 676.239362,383.499043 666.399496,391.772553 C656.546376,400.059309 651.633071,410.085532 651.633071,421.846809 C651.633071,435.078245 658.300496,445.713723 671.653021,453.713511 C684.979035,461.700053 701.177035,468.468085 720.224929,473.982287 C739.268404,479.496489 758.42234,485.937819 777.646972,493.297447 Z M330.798482,314 C439.951617,314 528.766674,402.743777 528.766674,511.809309 C528.766674,620.87484 439.951617,709.618617 330.798482,709.618617 L251.659809,709.618617 L251.659809,709.596543 L178,709.596543 L178,314.092713 L251.659809,314.092713 L257.584936,314.092713 L330.798482,314.092713 L330.798482,314 Z M330.798482,630.450745 C396.30627,630.450745 449.535213,577.242447 449.535213,511.809309 C449.535213,446.446809 396.30627,393.185532 330.798482,393.185532 L257.584936,393.185532 L257.584936,630.525798 L330.798482,630.525798 L330.798482,630.450745 Z" id="Combined-Shape" fill="#FFFFFF"></path>
        </g>
    </g>
</svg>