<svg xmlns="http://www.w3.org/2000/svg" width="33.5" height="29.5">
    <path fill="#F44E4E" fill-rule="evenodd" stroke="#F44E4E" d="M30.709 25.719a2.617 2.617 0 0 1-2.276 1.333H4.567a2.617 2.617 0 0 1-2.276-1.333 2.634 2.634 0 0 1 .038-2.644L14.262 3.217A2.625 2.625 0 0 1 16.5 1.948c.91 0 1.768.486 2.238 1.269l11.933 19.858c.486.808.501 1.822.038 2.644zm-1.66-1.663L17.116 4.198a.722.722 0 0 0-.616-.349.722.722 0 0 0-.616.349L3.951 24.056a.72.72 0 1 0 .616 1.095h23.866a.72.72 0 0 0 .616-1.095zm-12.523-1.292a1.356 1.356 0 0 1-1.353-1.358c0-.741.58-1.358 1.353-1.358.721 0 1.336.617 1.336 1.358 0 .723-.615 1.358-1.336 1.358zm-.017-3.933c-.562 0-1.037-.229-1.037-.775 0-2.099-.246-5.114-.246-7.212 0-.688.562-1.076 1.283-1.076.685 0 1.265.388 1.265 1.076 0 2.098-.246 5.113-.246 7.212 0 .546-.597.775-1.019.775z"/>
</svg>
