<svg xmlns="http://www.w3.org/2000/svg" width="18" height="18">
    <path fill="#0BC185" fill-rule="evenodd" d="M16.319 10.629l-2.44 2.44a3.74 3.74 0 0 1-5.286 0 3.744 3.744 0 0 1 0-5.287l2.44-2.44 1.626 1.627-2.439 2.44a1.438 1.438 0 0 0 2.032 2.033l2.441-2.44a3.457 3.457 0 0 0 0-4.88l-.814-.813a3.452 3.452 0 0 0-4.879 0L3.308 9.002a3.454 3.454 0 0 0 0 4.88l.813.815a3.456 3.456 0 0 0 3.76.746 5.989 5.989 0 0 0 2.658.953c-2.249 2.16-5.83 2.142-8.044-.073l-.813-.813a5.76 5.76 0 0 1 0-8.135l5.692-5.693a5.753 5.753 0 0 1 8.132 0l.813.813a5.76 5.76 0 0 1 0 8.134z"/>
</svg>
