<svg xmlns="http://www.w3.org/2000/svg" width="32" height="44">
    <path fill="#24CBD5" fill-rule="evenodd" d="M29.896 44H2.104C.944 44 0 43.027 0 41.831V2.169C0 .973.944 0 2.104 0H21.16a.979.979 0 0 1 .706.302l9.841 10.146a1.044 1.044 0 0 1 .293.728v30.655C32 43.027 31.056 44 29.896 44zM22.159 3.517v6.195c0 .239.189.434.422.434h6.007l-6.429-6.629zm7.843 8.689h-7.421c-1.335 0-2.42-1.119-2.42-2.494V2.06H2.104a.108.108 0 0 0-.106.109v39.662c0 .06.048.109.106.109h27.792a.109.109 0 0 0 .106-.109V12.206zM19.133 30.1c-1.579.2-2.859-.638-2.859-1.96 0-1.32 1.28-2.555 2.859-2.755 1.074-.135 1.674.224 1.674.224v-.005-5.007c0-.627-.651-.399-.651-.399l-5.889 1.92s-.677.251-.677.837v6.239c0 1.322-1.158 2.543-2.737 2.776-1.579.232-2.859-.578-2.859-1.899 0-1.323 1.28-2.582 2.859-2.816 1.074-.158 1.557.181 1.557.181v-7.307c0-.839.654-1.715 1.461-1.954l6.659-2.12c.807-.239 1.462.247 1.462 1.087v10.204c0 1.322-1.279 2.555-2.859 2.754z"/>
</svg>
