<svg xmlns="http://www.w3.org/2000/svg" width="12" height="12">
    <path fill="#BBB" fill-rule="evenodd" d="M12.001 4.336v5.756c0 1.052-.917 1.908-2.043 1.908H2.043C.916 12 0 11.144 0 10.092v-7.57C0 1.597.865.841 1.947.798v1.068c0 .608.529 1.103 1.18 1.103.651 0 1.181-.495 1.181-1.103V.794h3.347v1.072c0 .608.53 1.103 1.181 1.103.65 0 1.18-.495 1.18-1.103V.796c1.1.027 1.985.79 1.985 1.727v1.813zm-.889 0H.889v5.757c0 .594.518 1.077 1.154 1.077h7.915c.636 0 1.154-.483 1.154-1.077V4.336zM9.035 9.951h-.572c-.123 0-.222-.092-.222-.207V6.908c0-.114-.1-.207-.223-.207h-.743c-.122 0-.222-.093-.222-.208v-.216c0-.114.1-.211.222-.218.196-.012.341-.028.434-.047a.956.956 0 0 0 .487-.248.801.801 0 0 0 .194-.338c.011-.034.019-.066.025-.093.012-.052.113-.095.236-.095h.384c.123 0 .222.093.222.207v4.299c0 .115-.099.207-.222.207zM5.89 7.667c.254.218.38.518.38.897 0 .399-.148.749-.443 1.052-.296.302-.734.453-1.314.453-.714 0-1.21-.218-1.488-.654a1.671 1.671 0 0 1-.227-.703c-.014-.114.083-.207.206-.207h.53c.123 0 .22.094.238.207a.808.808 0 0 0 .082.261c.12.228.339.342.656.342a.758.758 0 0 0 .509-.187c.145-.125.217-.305.217-.538 0-.31-.134-.517-.402-.621a1.686 1.686 0 0 0-.5-.083c-.122-.006-.222-.098-.222-.213v-.247c0-.115.099-.209.222-.216.204-.013.355-.039.451-.08.219-.091.329-.275.329-.553a.594.594 0 0 0-.168-.438c-.113-.113-.27-.17-.474-.17-.234 0-.406.07-.516.208a.739.739 0 0 0-.145.349.24.24 0 0 1-.235.207h-.482c-.122 0-.219-.092-.205-.207.021-.158.058-.312.112-.459.081-.184.208-.354.382-.511.13-.11.284-.194.463-.253.178-.059.398-.088.657-.088.482 0 .871.117 1.167.35.296.232.444.545.444.938a.999.999 0 0 1-.424.843c-.095.07-.088.116.014.18.055.035.118.081.186.141zm2.946-5.32c-.284 0-.514-.215-.514-.48V.481c0-.265.23-.48.514-.48.283 0 .513.215.514.479v1.387c0 .265-.23.48-.514.48zm-5.708-.001c-.284 0-.514-.215-.514-.48V.48c0-.264.23-.479.514-.479.283 0 .513.215.513.479v1.386c0 .265-.23.48-.513.48z"/>
</svg>
