<svg xmlns="http://www.w3.org/2000/svg" width="38" height="20">
    <path fill="#F9F9F9" fill-rule="evenodd" d="M36.098 17.88a3.826 3.826 0 0 1-4.003-.31l-6.504-4.829c-.89-.661-1.399-1.659-1.399-2.739 0-1.08.509-2.079 1.399-2.74l6.504-4.829c1.12-.83 2.758-.955 4.004-.309 1.168.607 1.895 1.775 1.895 3.049v9.658c0 1.274-.727 2.442-1.896 3.049zm-15.596 2.117H2.912c-1.603 0-2.908-1.115-2.908-2.484V2.49C.004 1.121 1.309.007 2.912.007h17.59c1.604 0 2.908 1.114 2.908 2.483v15.023c0 1.369-1.304 2.484-2.908 2.484z"/>
</svg>
