<svg xmlns="http://www.w3.org/2000/svg" width="38" height="20">
    <path fill="#F9F9F9" fill-rule="evenodd" d="M36.098 17.88a3.826 3.826 0 0 1-4.003-.31l-6.504-4.828c-.89-.661-1.399-1.661-1.399-2.741s.509-2.078 1.399-2.738l6.504-4.83c1.12-.83 2.758-.955 4.004-.309 1.168.608 1.895 1.775 1.895 3.048v9.659c0 1.274-.727 2.442-1.896 3.049zm-15.596 2.117H2.912c-1.603 0-2.908-1.115-2.908-2.485V2.49C.004 1.121 1.309.006 2.912.006h17.59c1.604 0 2.908 1.115 2.908 2.484v15.022c0 1.37-1.304 2.485-2.908 2.485z"/>
</svg>
