<svg xmlns="http://www.w3.org/2000/svg" width="479" height="612">
    <path fill="#D5D5D5" fill-rule="evenodd" d="M418.815 612H60.185C26.997 612-.001 584.973-.001 551.754V89.052c0-33.221 27-60.246 60.186-60.246h73.561V0h211.507v28.806h73.562c33.186 0 60.186 27.025 60.186 60.244v462.704c0 33.221-27 60.246-60.186 60.246zM320.37 24.908H158.629v32.701H320.37V24.908zm133.747 64.144c0-19.487-15.837-35.339-35.302-35.339h-73.562v28.804H133.746V53.712H60.185c-19.467 0-35.303 15.853-35.303 35.338v462.702c0 19.487 15.837 35.338 35.303 35.338h358.63c19.467 0 35.302-15.853 35.302-35.338v-462.7zm-85.684 205.867l-12.941 19.675a31.779 31.779 0 0 1-26.312 14.347h-.286a31.774 31.774 0 0 1-26.277-13.874l-.36-.526c-2.064-3.019-5.111-3.102-6.319-3.009-1.212.103-4.198.694-5.736 4.012l-6.911 14.915c-5.307 11.458-16.383 18.47-28.76 18.47a32.66 32.66 0 0 1-3.081-.144c-13.597-1.269-24.553-10.651-27.91-23.901l-15.04-59.351c-1.207-4.767-5.081-5.247-6.781-5.254-1.637.008-5.569.545-6.727 5.324l-13.566 55.964c-3.278 13.528-14.35 23.043-28.206 24.241-13.865 1.191-26.393-6.281-31.939-19.047l-13.374-30.788a6.954 6.954 0 0 0-6.381-4.19H65.662v-24.908h35.864a31.827 31.827 0 0 1 29.201 19.166l13.374 30.788c1.801 4.148 5.486 4.289 6.981 4.163 1.497-.13 5.099-.903 6.164-5.297l13.566-55.964c3.512-14.491 15.882-24.28 30.779-24.356h.177c14.819 0 27.205 9.639 30.852 24.036l15.041 59.351c1.091 4.302 4.629 5.086 6.1 5.224 1.468.139 5.093.023 6.957-4.005l6.911-14.915c4.879-10.531 14.693-17.393 26.25-18.354 11.556-.955 22.367 4.184 28.917 13.766l.36.527c1.891 2.764 4.659 3.033 5.806 3.031 1.116-.01 3.91-.335 5.751-3.135l12.939-19.676a31.757 31.757 0 0 1 26.592-14.35h39.088v24.908h-39.088a6.935 6.935 0 0 0-5.811 3.136zM206.15 476.204H65.662v-24.908H206.15v24.908zm140.485 60.886H65.662v-24.908h280.973v24.908z"/>
</svg>
