<svg xmlns="http://www.w3.org/2000/svg" width="15" height="15">
    <path fill="#F44E4E" fill-rule="evenodd" d="M8.802.228a6.987 6.987 0 0 0-3.603 0A6.855 6.855 0 0 0 2.05 2.049 6.856 6.856 0 0 0 .229 5.198a6.97 6.97 0 0 0 0 3.604 6.839 6.839 0 0 0 1.821 3.149 6.857 6.857 0 0 0 3.148 1.821 6.99 6.99 0 0 0 3.604 0 6.859 6.859 0 0 0 3.148-1.822 6.84 6.84 0 0 0 1.821-3.148 6.97 6.97 0 0 0 0-3.604A6.848 6.848 0 0 0 11.95 2.05 6.85 6.85 0 0 0 8.802.228zM10.3 4.525a.558.558 0 0 1 .168.412.562.562 0 0 1-.168.413L8.65 7l1.65 1.65c.112.112.168.25.168.413a.56.56 0 0 1-.168.412l-.825.825a.558.558 0 0 1-.412.168.56.56 0 0 1-.413-.168L7 8.65 5.35 10.3a.56.56 0 0 1-.413.168.56.56 0 0 1-.412-.168L3.7 9.475a.56.56 0 0 1-.168-.412c0-.163.056-.301.168-.413L5.35 7 3.7 5.35a.562.562 0 0 1-.168-.413c0-.163.056-.301.168-.412l.825-.825a.56.56 0 0 1 .412-.168.56.56 0 0 1 .413.168L7 5.35 8.65 3.7a.56.56 0 0 1 .413-.168c.163 0 .301.056.412.168l.825.825z"/>
</svg>
