<svg xmlns="http://www.w3.org/2000/svg" width="15" height="15">
    <path fill="#F44E4E" fill-rule="evenodd" d="M8.802.228a6.987 6.987 0 0 0-3.603 0A6.846 6.846 0 0 0 2.05 2.049 6.856 6.856 0 0 0 .229 5.198a6.97 6.97 0 0 0 0 3.604A6.835 6.835 0 0 0 2.05 11.95a6.84 6.84 0 0 0 3.148 1.821 6.97 6.97 0 0 0 3.604 0 6.848 6.848 0 0 0 3.148-1.821 6.83 6.83 0 0 0 1.821-3.148 6.97 6.97 0 0 0 0-3.604A6.84 6.84 0 0 0 11.95 2.05 6.841 6.841 0 0 0 8.802.228zM10.3 4.525a.56.56 0 0 1 .168.412.562.562 0 0 1-.168.413L8.65 7l1.65 1.65a.56.56 0 0 1 .168.412.56.56 0 0 1-.168.413l-.825.825a.558.558 0 0 1-.412.168.56.56 0 0 1-.413-.168L7 8.65 5.35 10.3a.56.56 0 0 1-.413.168.56.56 0 0 1-.412-.168L3.7 9.475a.56.56 0 0 1-.168-.413c0-.163.056-.3.168-.412L5.35 7 3.7 5.35a.562.562 0 0 1-.168-.413c0-.163.056-.3.168-.412l.825-.826a.563.563 0 0 1 .412-.167c.164 0 .301.056.413.167L7 5.35l1.65-1.651a.563.563 0 0 1 .413-.167c.163 0 .301.056.412.167l.825.826z"/>
</svg>
