<svg xmlns="http://www.w3.org/2000/svg" width="32" height="44">
    <path fill="#0BC185" fill-rule="evenodd" d="M29.896 44H2.104C.944 44 0 43.027 0 41.831V2.169C0 .973.944 0 2.104 0H21.16a.98.98 0 0 1 .706.302l9.841 10.146a1.044 1.044 0 0 1 .293.729v30.654C32 43.027 31.056 44 29.896 44zM22.159 3.518v6.193c0 .24.189.435.422.435h6.007l-6.429-6.628zm7.843 8.689h-7.421c-1.335 0-2.42-1.119-2.42-2.496V2.06H2.104a.108.108 0 0 0-.106.109v39.662c0 .06.048.109.106.109h27.792a.109.109 0 0 0 .106-.109V12.207zM25.655 32H6.345A.346.346 0 0 1 6 31.652V16.348c0-.192.155-.348.345-.348h19.31c.191 0 .345.156.345.348v15.304a.346.346 0 0 1-.345.348zm-.345-15.305H6.69v14.609h18.62V16.695zm-11.256 7.397a.343.343 0 0 1 .472.016l1.635 1.649 3.377-3.73a.342.342 0 0 1 .488-.023l4.138 3.827c.141.129.15.35.021.491a.343.343 0 0 1-.487.021l-3.883-3.59-3.166 3.497 1.658 1.672a.351.351 0 0 1 0 .492.343.343 0 0 1-.488 0l-3.552-3.583-5.626 4.996a.34.34 0 0 1-.486-.032.35.35 0 0 1 .031-.491l5.868-5.212zm-2.537-.392a1.93 1.93 0 0 1-1.92-1.937 1.93 1.93 0 0 1 1.92-1.937c1.059 0 1.921.869 1.921 1.938a1.931 1.931 0 0 1-1.921 1.936zm0-3.178c-.678 0-1.23.557-1.23 1.242 0 .684.552 1.24 1.23 1.24.679 0 1.231-.557 1.231-1.241s-.552-1.241-1.231-1.241z"/>
</svg>
