<svg xmlns="http://www.w3.org/2000/svg" width="25" height="24">
    <path fill="#0BC185" fill-rule="evenodd" d="M23.363 11.317L11.681 23h5.318a.5.5 0 0 1 0 1H9.776 7a.5.5 0 0 1 0-1h.872l-6.298-6.299h-.001l-.937-.937A2.164 2.164 0 0 1 0 14.223c0-.583.226-1.13.636-1.54L12.682.636c.41-.41.957-.636 1.541-.636.583 0 1.13.226 1.54.636l7.6 7.6c.849.85.849 2.232 0 3.081zm-.707-2.374l-4.188-4.188L6.9 16.325a.502.502 0 0 1-.708 0 .5.5 0 0 1 0-.707l11.569-11.57-2.705-2.705A1.17 1.17 0 0 0 14.223 1c-.317 0-.612.122-.834.343L1.343 13.39a1.17 1.17 0 0 0-.343.833c0 .317.122.612.343.834l.584.584 11.568-11.57a.5.5 0 0 1 .708.707L2.634 16.348l6.309 6.309c.221.221.516.342.831.343h.004c.315-.001.611-.122.832-.343L22.656 10.61a1.181 1.181 0 0 0 0-1.667zm-4.282 2.977a.495.495 0 0 1-.707 0l-1.414-1.414a.5.5 0 0 1 0-.707l2.121-2.121a.5.5 0 0 1 .708 0l1.414 1.414a.5.5 0 0 1 0 .707l-2.122 2.121zm.354-3.182l-1.414 1.414.707.708 1.414-1.415-.707-.707zm-6.043 8.872a.498.498 0 0 1-.707 0 .499.499 0 0 1 0-.707l.212-.212a.5.5 0 0 1 .707.707l-.212.212zm-4.301 1.472a.495.495 0 0 1-.707 0 .5.5 0 0 1 0-.707l3.935-3.934a.5.5 0 0 1 .707.707l-3.935 3.934zm2.321-.906a.5.5 0 0 1 .707.707l-1.614 1.614a.498.498 0 0 1-.707 0 .5.5 0 0 1 0-.707l1.614-1.614zm-5.184-.472a.502.502 0 0 1-.708 0 .502.502 0 0 1 0-.708l.213-.212a.5.5 0 0 1 .707.707l-.212.213zm9.353-15.011a.5.5 0 1 1 .707.707l-.211.212a.498.498 0 0 1-.708 0 .5.5 0 0 1 0-.707l.212-.212z"/>
</svg>
