<svg xmlns="http://www.w3.org/2000/svg" width="26" height="24">
    <path fill="#BBB" fill-rule="evenodd" d="M12.998 0C5.829 0-.004 5.1-.004 11.368c0 2.192.714 4.314 2.067 6.149-.256 2.753-.943 4.796-1.94 5.764a.414.414 0 0 0-.081.486.434.434 0 0 0 .448.229c.176-.024 4.253-.594 7.202-2.248 1.675.656 3.459.989 5.306.989 7.17 0 13.003-5.1 13.003-11.369C26.001 5.1 20.168 0 12.998 0zM6.931 13.053c-.956 0-1.734-.756-1.734-1.685 0-.928.778-1.684 1.734-1.684s1.733.756 1.733 1.684c0 .929-.777 1.685-1.733 1.685zm6.067 0c-.956 0-1.733-.756-1.733-1.685 0-.928.777-1.684 1.733-1.684.957 0 1.734.756 1.734 1.684 0 .929-.777 1.685-1.734 1.685zm6.068 0c-.956 0-1.733-.756-1.733-1.685 0-.928.777-1.684 1.733-1.684.956 0 1.734.756 1.734 1.684 0 .929-.778 1.685-1.734 1.685z"/>
</svg>
