<svg xmlns="http://www.w3.org/2000/svg" width="26" height="32">
    <path fill="#FFF" fill-rule="evenodd" d="M25.808 6.595l-6.79 6.943V16c0 1.693-.589 3.141-1.767 4.346-1.179 1.205-2.596 1.808-4.251 1.808-.69 0-1.373-.122-2.05-.366l-1.806 1.846a8.02 8.02 0 0 0 3.856.982c2.32 0 4.304-.844 5.953-2.529 1.648-1.686 2.473-3.715 2.473-6.087v-2.462c0-.333.119-.622.358-.865.238-.244.52-.366.846-.366.326 0 .608.122.846.366.238.243.358.532.358.865v2.463c0 2.832-.925 5.298-2.775 7.394-1.849 2.096-4.135 3.298-6.855 3.606v2.539h4.814c.326 0 .609.121.847.365s.357.532.357.865c0 .334-.119.622-.357.866a1.144 1.144 0 0 1-.847.365H6.981c-.326 0-.608-.121-.846-.365a1.199 1.199 0 0 1-.358-.866c0-.333.12-.621.358-.865s.52-.365.846-.365h4.815v-2.539a10.2 10.2 0 0 1-4.42-1.558l-4.777 4.885a.59.59 0 0 1-.433.192.589.589 0 0 1-.432-.192L.192 28.751a.616.616 0 0 1 0-.885L23.401 4.134a.587.587 0 0 1 .433-.193c.162 0 .307.064.432.193l1.542 1.576a.614.614 0 0 1 0 .885zM6.981 6.153c0-1.692.59-3.141 1.768-4.346C9.928.601 11.345-.001 13-.001c1.279 0 2.436.378 3.47 1.134a6.088 6.088 0 0 1 2.191 2.924L6.981 16V6.153zm-4.815 9.846v-2.461c0-.333.119-.622.358-.866.238-.243.52-.365.846-.365.326 0 .608.122.847.365a1.2 1.2 0 0 1 .357.866V16c0 .679.094 1.403.282 2.173l-1.9 1.942a11.02 11.02 0 0 1-.79-4.116z"/>
</svg>
