<svg xmlns="http://www.w3.org/2000/svg" width="22" height="32">
    <path fill="#FFF" fill-rule="evenodd" d="M19.182 23.395c-1.878 2.096-4.198 3.298-6.96 3.605v2.539h4.888c.331 0 .617.122.859.366.242.243.363.532.363.865 0 .333-.121.622-.363.865a1.169 1.169 0 0 1-.859.366H4.89c-.331 0-.617-.122-.859-.366a1.185 1.185 0 0 1-.363-.865c0-.333.121-.622.363-.865.242-.244.528-.366.859-.366h4.888V27c-2.763-.307-5.082-1.509-6.96-3.605C.941 21.298.002 18.834.002 16v-2.462c0-.333.121-.622.363-.865.242-.244.528-.366.859-.366.331 0 .617.122.859.366.242.243.363.532.363.865V16c0 2.372.837 4.401 2.511 6.087 1.674 1.686 3.688 2.529 6.043 2.529s4.369-.843 6.043-2.529c1.674-1.686 2.511-3.715 2.511-6.087v-2.462c0-.333.121-.622.363-.865.242-.244.528-.366.859-.366.331 0 .617.122.859.366s.363.532.363.865V16c0 2.834-.939 5.298-2.816 7.395zm-3.867-3.049c-1.197 1.205-2.635 1.808-4.315 1.808-1.68 0-3.119-.603-4.315-1.808C5.488 19.142 4.89 17.692 4.89 16V6.153c0-1.692.598-3.141 1.795-4.346C7.881.602 9.32-.001 11-.001c1.68 0 3.118.603 4.315 1.808 1.197 1.205 1.795 2.654 1.795 4.346V16c0 1.692-.599 3.142-1.795 4.346z"/>
</svg>
