<svg xmlns="http://www.w3.org/2000/svg" width="36" height="32">
    <path fill="#FFF" fill-rule="evenodd" d="M30.941 15.304l4.862 5.074a.715.715 0 0 1 0 .983.65.65 0 0 1-.943 0l-4.861-5.073-4.862 5.073a.65.65 0 0 1-.943 0 .715.715 0 0 1 0-.983l4.862-5.074-4.862-5.073a.716.716 0 0 1 0-.984.647.647 0 0 1 .943 0l4.862 5.074 4.861-5.074a.647.647 0 0 1 .943 0 .716.716 0 0 1 0 .984l-4.862 5.073zM17.928 32c-.367 0-.731-.106-1.053-.309a.706.706 0 0 1-.108-.083l-9.028-8.651H.665c-.368 0-.666-.311-.666-.696V9.043c0-.384.298-.695.666-.695h7.09L16.789.374a.606.606 0 0 1 .086-.065A1.974 1.974 0 0 1 17.928 0c1.141 0 2.071.985 2.071 2.195v27.61c0 1.21-.93 2.195-2.071 2.195zM8.665 9.739c0-.385-.298-.696-.666-.696-.369 0-.667.311-.667.696v2.783a.68.68 0 0 0 .667.695c.368 0 .666-.311.666-.695V9.739zm0 9.044c0-.385-.298-.696-.666-.696-.369 0-.667.311-.667.696v2.782c0 .385.298.696.667.696.368 0 .666-.311.666-.696v-2.782z"/>
</svg>
