<svg xmlns="http://www.w3.org/2000/svg" width="18" height="24">
    <path fill="#BBB" fill-rule="evenodd" d="M17.854 18.912a1.246 1.246 0 0 1-1.105.689H1.25c-.464 0-.889-.266-1.106-.689a1.33 1.33 0 0 1 .072-1.333l2.476-3.762V9.123c0-3.165 2.179-5.804 5.07-6.398V1.279C7.762.573 8.316 0 8.999 0s1.237.573 1.237 1.279v1.446c2.891.594 5.071 3.233 5.071 6.398v4.694l2.476 3.762c.261.396.288.909.071 1.333zm-6.104 2.224v.018c0 1.572-1.231 2.846-2.751 2.846-1.519 0-2.751-1.274-2.751-2.846l.001-.018h5.501z"/>
</svg>
