<svg xmlns="http://www.w3.org/2000/svg" width="20" height="24">
    <path fill="#0BC185" fill-rule="evenodd" d="M19.532 5.674l-3.906 6.632a3.406 3.406 0 0 1-2.376 1.637v3.198c0 3.782-2.427 6.859-5.41 6.859s-5.41-3.077-5.41-6.859v-3.808C1.045 13.056 0 11.852 0 10.414c0-1.643 1.363-2.979 3.038-2.979 1.676 0 3.039 1.336 3.039 2.979 0 1.438-1.046 2.642-2.43 2.919v3.808c0 3.125 1.881 5.667 4.193 5.667 2.313 0 4.194-2.542 4.194-5.667v-3.198a3.406 3.406 0 0 1-2.376-1.637L5.752 5.674a3.288 3.288 0 0 1 0-3.379C6.3 1.364 7.239.791 8.304.661A1.218 1.218 0 0 1 9.384 0c.677 0 1.226.538 1.226 1.202 0 .664-.549 1.202-1.226 1.202-.431 0-.791-.231-1.01-.56a2.195 2.195 0 0 0-1.569 1.047 2.13 2.13 0 0 0 0 2.187l3.906 6.632a2.215 2.215 0 0 0 1.931 1.094 2.217 2.217 0 0 0 1.931-1.094l3.906-6.632a2.13 2.13 0 0 0 0-2.187c-.344-.584-.926-.949-1.588-1.049a1.214 1.214 0 0 1-2.238-.64c0-.664.549-1.202 1.226-1.202.474 0 .874.272 1.078.658 1.074.124 2.022.699 2.575 1.637a3.288 3.288 0 0 1 0 3.379z"/>
</svg>
