<svg xmlns="http://www.w3.org/2000/svg" width="14" height="14">
    <path fill="#2576C0" fill-rule="evenodd" d="M6.906.001A6.999 6.999 0 0 0 .001 7.094 7.002 7.002 0 0 0 7.094 14 7.001 7.001 0 0 0 6.906.001zm-.02 11.26l-.039-.001c-.595-.017-1.015-.456-.998-1.043a.995.995 0 0 1 1.022-.994h.035c.612.018 1.027.452 1.009 1.056-.017.578-.44.982-1.029.982zm2.504-4.97c-.14.199-.448.446-.836.748l-.427.295c-.235.183-.376.354-.429.523-.042.133-.063.168-.066.438l-.001.068H6l.005-.138c.02-.567.034-.901.269-1.176.369-.433 1.183-.957 1.217-.98a1.25 1.25 0 0 0 .288-.294c.171-.236.247-.422.247-.605 0-.253-.075-.487-.224-.696-.143-.201-.414-.303-.807-.303-.389 0-.656.124-.815.377a1.517 1.517 0 0 0-.247.814v.07H4.251l.003-.073c.044-1.03.411-1.772 1.092-2.205.428-.275.961-.414 1.583-.414.813 0 1.5.197 2.04.587.548.394.826.987.826 1.758 0 .432-.136.838-.405 1.206z"/>
</svg>
