<svg xmlns="http://www.w3.org/2000/svg" width="14" height="14">
    <path fill="#2576C0" fill-rule="evenodd" d="M6.906.001a7 7 0 1 0 .188 13.998A7 7 0 0 0 6.906.001zm-.02 11.26l-.039-.001c-.595-.017-1.015-.456-.998-1.042a.995.995 0 0 1 1.022-.995h.035c.612.018 1.027.453 1.009 1.056-.017.578-.44.982-1.029.982zm2.504-4.97c-.14.199-.448.446-.836.748l-.427.295c-.235.182-.376.353-.429.523-.042.132-.063.168-.066.438l-.001.068H6l.005-.138c.02-.567.034-.901.269-1.176.369-.433 1.182-.957 1.217-.979.117-.088.215-.188.288-.295.171-.236.247-.422.247-.605 0-.253-.075-.487-.224-.696-.143-.201-.414-.303-.807-.303-.389 0-.656.123-.815.377a1.514 1.514 0 0 0-.247.814v.07H4.251l.003-.073c.043-1.03.411-1.772 1.092-2.205.428-.275.961-.415 1.583-.415.813 0 1.5.198 2.04.588.548.395.826.986.826 1.758 0 .432-.136.838-.405 1.206z"/>
</svg>
