<svg xmlns="http://www.w3.org/2000/svg" width="32" height="44">
    <path fill="#24CBD5" fill-rule="evenodd" d="M29.896 44H2.104C.944 44 0 43.027 0 41.831V2.169C0 .973.944 0 2.104 0H21.16a.98.98 0 0 1 .707.302l9.84 10.146c.184.19.284.441.291.698l.002.03v30.655C32 43.027 31.056 44 29.896 44zM22.159 3.517v6.194c0 .24.189.436.422.436h6.007l-6.429-6.63zm7.843 8.69h-7.421c-1.335 0-2.42-1.12-2.42-2.496v-7.65H2.104a.106.106 0 0 0-.105.108v39.662c0 .06.047.108.105.108h27.792a.108.108 0 0 0 .106-.108V12.207zm-6.05 9.164H26v3.258h-2.048v-3.258zm-2.992-2.185h2.048v7.628H20.96v-7.628zm-2.992 2.185h2.048v3.258h-2.048v-3.258zm-2.992-2.185h2.048v7.628h-2.048v-7.628zM11.984 17h2.048v12h-2.048V17zm-2.992 2.186h2.048v7.628H8.992v-7.628zM6 21.371h2.048v3.258H6v-3.258z"/>
</svg>
