<svg xmlns="http://www.w3.org/2000/svg" width="22" height="24">
    <path fill="#0BC185" fill-rule="evenodd" d="M19.002 9.126v-.923c0-2.208-.762-4.26-2.142-5.783C15.444.857 13.499 0 11.376 0h-.742C8.511 0 6.565.857 5.15 2.42 3.769 3.943 3.007 5.995 3.007 8.203v.923C1.332 9.242 0 10.674 0 12.423v1.443c0 1.82 1.445 3.302 3.219 3.302h1.813a.6.6 0 0 0 .59-.605V9.721a.6.6 0 0 0-.59-.605h-.845v-.913c0-3.988 2.771-6.993 6.442-6.993h.742c3.675 0 6.442 3.005 6.442 6.993v.913h-.845a.6.6 0 0 0-.59.605v6.837a.6.6 0 0 0 .59.605h.825c-.241 3.156-2.358 3.887-3.341 4.054-.27-.852-1.052-1.467-1.971-1.467h-1.474c-1.14 0-2.069.953-2.069 2.122 0 1.17.929 2.128 2.069 2.128h1.479c.953 0 1.755-.665 1.995-1.563a5.484 5.484 0 0 0 2-.701c1.067-.64 2.329-1.946 2.497-4.578C20.663 17.052 22 15.615 22 13.861v-1.442c.005-1.745-1.322-3.182-2.998-3.293zm-14.55 6.827H3.228c-1.125 0-2.039-.938-2.039-2.092v-1.442c0-1.155.914-2.093 2.039-2.093h1.224v5.627zm8.034 6.837h-1.479a.9.9 0 0 1-.889-.913.9.9 0 0 1 .889-.912h1.479a.9.9 0 0 1 .89.912.9.9 0 0 1-.89.913zm8.339-8.929c0 1.154-.914 2.092-2.039 2.092h-1.224v-5.627h1.224c1.125 0 2.039.938 2.039 2.093v1.442z"/>
</svg>
