<svg xmlns="http://www.w3.org/2000/svg" width="46" height="14">
    <path fill="#2576C0" fill-rule="evenodd" d="M42.972.26h-2.889c-.895 0-1.564.242-1.958 1.126l-5.551 12.429H36.5s.641-1.671.785-2.036l4.789.005c.112.473.455 2.031.455 2.031h3.469L42.972.26zm-4.611 8.742c.309-.779 1.489-3.79 1.489-3.79-.019.036.307-.785.499-1.295l.253 1.169s.715 3.238.866 3.916h-3.107zm-5.523.376c-.028 2.816-2.581 4.634-6.511 4.634-1.676-.017-3.29-.344-4.165-.723l.526-3.036.481.216c1.229.507 2.024.711 3.521.711 1.074 0 2.225-.415 2.235-1.323.007-.594-.481-1.019-1.937-1.682-1.42-.651-3.298-1.738-3.275-3.686.021-2.636 2.624-4.476 6.319-4.476 1.448 0 2.609.295 3.349.569l-.505 2.94-.338-.157a6.967 6.967 0 0 0-2.798-.518c-1.464 0-2.143.602-2.143 1.166-.008.635.792 1.053 2.1 1.681 2.159.966 3.156 2.141 3.141 3.684zM.005.401L.052.13h5.797C6.63.159 7.26.405 7.478 1.231l1.26 5.993C7.5 4.09 4.515 1.481.005.401zM16.909.258l-5.887 13.537-3.956.005L3.718 2.491c2.406 1.523 4.457 3.939 5.179 5.62l.39 1.397L12.949.26l3.96-.002zM18.42.247h3.741l-2.34 13.563h-3.738L18.42.247z"/>
</svg>
