<svg xmlns="http://www.w3.org/2000/svg" width="36" height="32">
    <path fill="#FFF" fill-rule="evenodd" d="M26.864 28.485a.693.693 0 0 1-.878-.433.696.696 0 0 1 .431-.883c4.904-1.682 8.199-6.311 8.199-11.516 0-5.211-3.301-9.838-8.215-11.515a.698.698 0 0 1-.433-.883.69.69 0 0 1 .878-.435C32.322 4.688 36 9.846 36 15.654c0 5.801-3.672 10.958-9.136 12.831zm2.909-12.833c0 4.155-2.774 7.863-6.747 9.017a.693.693 0 0 1-.856-.476.696.696 0 0 1 .473-.861c3.383-.983 5.746-4.141 5.746-7.68 0-3.539-2.363-6.697-5.746-7.68a.696.696 0 0 1 .383-1.337c3.972 1.155 6.747 4.863 6.747 9.017zM18.609 32c-.381 0-.759-.106-1.093-.309a.683.683 0 0 1-.111-.083l-9.372-8.651H.692A.693.693 0 0 1 0 22.261V9.044c0-.385.309-.696.692-.696H8.05L17.427.374a.644.644 0 0 1 .09-.065A2.112 2.112 0 0 1 18.61 0c1.184 0 2.149.985 2.148 2.196v27.608c0 1.211-.964 2.196-2.149 2.196zM8.995 9.739a.692.692 0 1 0-1.384 0v2.783a.693.693 0 0 0 1.384 0V9.739zm0 9.043a.693.693 0 1 0-1.384 0v2.783a.693.693 0 0 0 1.384 0v-2.783z"/>
</svg>
